<?xml version="1.0" encoding="UTF-8" standalone="no"?>
<!DOCTYPE svg PUBLIC "-//W3C//DTD SVG 1.1//EN"
 "http://www.w3.org/Graphics/SVG/1.1/DTD/svg11.dtd">
<!-- Generated by graphviz version 2.28.0 (20120531.2029)
 -->
<!-- Title: models_diagram Pages: 1 -->
<svg width="740pt" height="1940pt"
 viewBox="0.00 0.00 740.00 1940.00" xmlns="http://www.w3.org/2000/svg" xmlns:xlink="http://www.w3.org/1999/xlink">
<g id="graph1" class="graph" transform="scale(1 1) rotate(0) translate(4 1936)">
<title>models_diagram</title>
<polygon fill="white" stroke="white" points="-4,5 -4,-1936 737,-1936 737,5 -4,5"/>
<!-- Event -->
<g id="node1" class="node"><title>Event</title>
<polyline fill="none" stroke="black" points="148.495,-1298.8 257.505,-1298.8 "/>
<path fill="none" stroke="black" d="M257.505,-1298.8C263.505,-1298.8 269.505,-1304.8 269.505,-1310.8"/>
<polyline fill="none" stroke="black" points="269.505,-1310.8 269.505,-1437.2 "/>
<path fill="none" stroke="black" d="M269.505,-1437.2C269.505,-1443.2 263.505,-1449.2 257.505,-1449.2"/>
<polyline fill="none" stroke="black" points="257.505,-1449.2 148.495,-1449.2 "/>
<path fill="none" stroke="black" d="M148.495,-1449.2C142.495,-1449.2 136.495,-1443.2 136.495,-1437.2"/>
<polyline fill="none" stroke="black" points="136.495,-1437.2 136.495,-1310.8 "/>
<path fill="none" stroke="black" d="M136.495,-1310.8C136.495,-1304.8 142.495,-1298.8 148.495,-1298.8"/>
<text text-anchor="middle" x="203" y="-1431.2" font-family="Times,serif" font-size="14.00">Event</text>
<polyline fill="none" stroke="black" points="136.495,-1424.4 269.505,-1424.4 "/>
<text text-anchor="start" x="144.495" y="-1406.4" font-family="Times,serif" font-size="14.00">title :string</text>
<text text-anchor="start" x="144.495" y="-1389.6" font-family="Times,serif" font-size="14.00">description :text</text>
<text text-anchor="start" x="144.495" y="-1372.8" font-family="Times,serif" font-size="14.00">price :decimal</text>
<text text-anchor="start" x="144.495" y="-1356" font-family="Times,serif" font-size="14.00">created_at :datetime</text>
<text text-anchor="start" x="144.495" y="-1339.2" font-family="Times,serif" font-size="14.00">updated_at :datetime</text>
<text text-anchor="start" x="144.495" y="-1322.4" font-family="Times,serif" font-size="14.00">clicks :integer</text>
<text text-anchor="start" x="144.495" y="-1305.6" font-family="Times,serif" font-size="14.00">views :integer</text>
</g>
<!-- Occurrence -->
<g id="node4" class="node"><title>Occurrence</title>
<polyline fill="none" stroke="black" points="11.1636,-800.6 124.836,-800.6 "/>
<path fill="none" stroke="black" d="M124.836,-800.6C130.836,-800.6 136.836,-806.6 136.836,-812.6"/>
<polyline fill="none" stroke="black" points="136.836,-812.6 136.836,-905.4 "/>
<path fill="none" stroke="black" d="M136.836,-905.4C136.836,-911.4 130.836,-917.4 124.836,-917.4"/>
<polyline fill="none" stroke="black" points="124.836,-917.4 11.1636,-917.4 "/>
<path fill="none" stroke="black" d="M11.1636,-917.4C5.16357,-917.4 -0.836426,-911.4 -0.836426,-905.4"/>
<polyline fill="none" stroke="black" points="-0.836426,-905.4 -0.836426,-812.6 "/>
<path fill="none" stroke="black" d="M-0.836426,-812.6C-0.836426,-806.6 5.16357,-800.6 11.1636,-800.6"/>
<text text-anchor="middle" x="68" y="-899.4" font-family="Times,serif" font-size="14.00">Occurrence</text>
<polyline fill="none" stroke="black" points="-0.836426,-892.6 136.836,-892.6 "/>
<text text-anchor="start" x="7.16357" y="-874.6" font-family="Times,serif" font-size="14.00">start :datetime</text>
<text text-anchor="start" x="7.16357" y="-857.8" font-family="Times,serif" font-size="14.00">end :datetime</text>
<text text-anchor="start" x="7.16357" y="-841" font-family="Times,serif" font-size="14.00">created_at :datetime</text>
<text text-anchor="start" x="7.16357" y="-824.2" font-family="Times,serif" font-size="14.00">updated_at :datetime</text>
<text text-anchor="start" x="7.16357" y="-807.4" font-family="Times,serif" font-size="14.00">day_of_week :integer</text>
</g>
<!-- Event&#45;&gt;Occurrence -->
<g id="edge6" class="edge"><title>Event&#45;&gt;Occurrence</title>
<path fill="none" stroke="#f1125a" d="M129.247,-1336.42C100.222,-1317.85 70.0435,-1292.3 54,-1260 1.05648,-1153.4 25.2285,-1010.38 47.0234,-927.395"/>
<ellipse fill="none" stroke="#f1125a" cx="132.803" cy="-1338.64" rx="4.00002" ry="4.00002"/>
<polygon fill="#f1125a" stroke="#f1125a" points="47.0661,-927.236 54.0097,-918.749 48.3651,-922.408 49.6642,-917.58 49.6642,-917.58 49.6642,-917.58 48.3651,-922.408 45.3187,-916.411 47.0661,-927.236 47.0661,-927.236"/>
</g>
<!-- Recurrence -->
<g id="node7" class="node"><title>Recurrence</title>
<polyline fill="none" stroke="black" points="75.3809,-1041.2 204.619,-1041.2 "/>
<path fill="none" stroke="black" d="M204.619,-1041.2C210.619,-1041.2 216.619,-1047.2 216.619,-1053.2"/>
<polyline fill="none" stroke="black" points="216.619,-1053.2 216.619,-1246.8 "/>
<path fill="none" stroke="black" d="M216.619,-1246.8C216.619,-1252.8 210.619,-1258.8 204.619,-1258.8"/>
<polyline fill="none" stroke="black" points="204.619,-1258.8 75.3809,-1258.8 "/>
<path fill="none" stroke="black" d="M75.3809,-1258.8C69.3809,-1258.8 63.3809,-1252.8 63.3809,-1246.8"/>
<polyline fill="none" stroke="black" points="63.3809,-1246.8 63.3809,-1053.2 "/>
<path fill="none" stroke="black" d="M63.3809,-1053.2C63.3809,-1047.2 69.3809,-1041.2 75.3809,-1041.2"/>
<text text-anchor="middle" x="140" y="-1240.8" font-family="Times,serif" font-size="14.00">Recurrence</text>
<polyline fill="none" stroke="black" points="63.3809,-1234 216.619,-1234 "/>
<text text-anchor="start" x="71.3809" y="-1216" font-family="Times,serif" font-size="14.00">interval :integer</text>
<text text-anchor="start" x="71.3809" y="-1199.2" font-family="Times,serif" font-size="14.00">every_other :integer</text>
<text text-anchor="start" x="71.3809" y="-1182.4" font-family="Times,serif" font-size="14.00">day_of_week :integer</text>
<text text-anchor="start" x="71.3809" y="-1165.6" font-family="Times,serif" font-size="14.00">day_of_month :integer</text>
<text text-anchor="start" x="71.3809" y="-1148.8" font-family="Times,serif" font-size="14.00">week_of_month :integer</text>
<text text-anchor="start" x="71.3809" y="-1132" font-family="Times,serif" font-size="14.00">range_start :date</text>
<text text-anchor="start" x="71.3809" y="-1115.2" font-family="Times,serif" font-size="14.00">range_end :date</text>
<text text-anchor="start" x="71.3809" y="-1098.4" font-family="Times,serif" font-size="14.00">start :datetime</text>
<text text-anchor="start" x="71.3809" y="-1081.6" font-family="Times,serif" font-size="14.00">end :datetime</text>
<text text-anchor="start" x="71.3809" y="-1064.8" font-family="Times,serif" font-size="14.00">created_at :datetime</text>
<text text-anchor="start" x="71.3809" y="-1048" font-family="Times,serif" font-size="14.00">updated_at :datetime</text>
</g>
<!-- Event&#45;&gt;Recurrence -->
<g id="edge4" class="edge"><title>Event&#45;&gt;Recurrence</title>
<path fill="none" stroke="#5caa4f" d="M179.709,-1290.93C177.666,-1283.73 175.573,-1276.35 173.469,-1268.94"/>
<ellipse fill="none" stroke="#5caa4f" cx="180.842" cy="-1294.92" rx="4.00001" ry="4.00001"/>
<polygon fill="#5caa4f" stroke="#5caa4f" points="173.429,-1268.8 175.028,-1257.95 172.064,-1263.99 170.699,-1259.18 170.699,-1259.18 170.699,-1259.18 172.064,-1263.99 166.369,-1260.4 173.429,-1268.8 173.429,-1268.8"/>
</g>
<!-- Tag -->
<g id="node9" class="node"><title>Tag</title>
<polyline fill="none" stroke="black" points="246.495,-1108.4 355.505,-1108.4 "/>
<path fill="none" stroke="black" d="M355.505,-1108.4C361.505,-1108.4 367.505,-1114.4 367.505,-1120.4"/>
<polyline fill="none" stroke="black" points="367.505,-1120.4 367.505,-1179.6 "/>
<path fill="none" stroke="black" d="M367.505,-1179.6C367.505,-1185.6 361.505,-1191.6 355.505,-1191.6"/>
<polyline fill="none" stroke="black" points="355.505,-1191.6 246.495,-1191.6 "/>
<path fill="none" stroke="black" d="M246.495,-1191.6C240.495,-1191.6 234.495,-1185.6 234.495,-1179.6"/>
<polyline fill="none" stroke="black" points="234.495,-1179.6 234.495,-1120.4 "/>
<path fill="none" stroke="black" d="M234.495,-1120.4C234.495,-1114.4 240.495,-1108.4 246.495,-1108.4"/>
<text text-anchor="middle" x="301" y="-1173.6" font-family="Times,serif" font-size="14.00">Tag</text>
<polyline fill="none" stroke="black" points="234.495,-1166.8 367.505,-1166.8 "/>
<text text-anchor="start" x="242.495" y="-1148.8" font-family="Times,serif" font-size="14.00">name :string</text>
<text text-anchor="start" x="242.495" y="-1132" font-family="Times,serif" font-size="14.00">created_at :datetime</text>
<text text-anchor="start" x="242.495" y="-1115.2" font-family="Times,serif" font-size="14.00">updated_at :datetime</text>
</g>
<!-- Event&#45;&gt;Tag -->
<g id="edge2" class="edge"><title>Event&#45;&gt;Tag</title>
<path fill="none" stroke="#be6f59" d="M239.88,-1289.46C253.006,-1259.72 267.371,-1227.18 278.874,-1201.12"/>
<polygon fill="#be6f59" stroke="#be6f59" points="239.807,-1289.62 231.652,-1296.95 237.788,-1294.19 235.769,-1298.77 235.769,-1298.77 235.769,-1298.77 237.788,-1294.19 239.886,-1300.59 239.807,-1289.62 239.807,-1289.62"/>
<polygon fill="#be6f59" stroke="#be6f59" points="278.937,-1200.98 287.092,-1193.65 280.956,-1196.4 282.976,-1191.83 282.976,-1191.83 282.976,-1191.83 280.956,-1196.4 278.859,-1190.01 278.937,-1200.98 278.937,-1200.98"/>
</g>
<!-- EventsTags -->
<g id="node2" class="node"><title>EventsTags</title>
<polyline fill="none" stroke="black" points="299.495,-1830.8 408.505,-1830.8 "/>
<path fill="none" stroke="black" d="M408.505,-1830.8C414.505,-1830.8 420.505,-1836.8 420.505,-1842.8"/>
<polyline fill="none" stroke="black" points="420.505,-1842.8 420.505,-1885.2 "/>
<path fill="none" stroke="black" d="M420.505,-1885.2C420.505,-1891.2 414.505,-1897.2 408.505,-1897.2"/>
<polyline fill="none" stroke="black" points="408.505,-1897.2 299.495,-1897.2 "/>
<path fill="none" stroke="black" d="M299.495,-1897.2C293.495,-1897.2 287.495,-1891.2 287.495,-1885.2"/>
<polyline fill="none" stroke="black" points="287.495,-1885.2 287.495,-1842.8 "/>
<path fill="none" stroke="black" d="M287.495,-1842.8C287.495,-1836.8 293.495,-1830.8 299.495,-1830.8"/>
<text text-anchor="middle" x="354" y="-1879.2" font-family="Times,serif" font-size="14.00">EventsTags</text>
<polyline fill="none" stroke="black" points="287.495,-1872.4 420.505,-1872.4 "/>
<text text-anchor="start" x="295.495" y="-1854.4" font-family="Times,serif" font-size="14.00">created_at :datetime</text>
<text text-anchor="start" x="295.495" y="-1837.6" font-family="Times,serif" font-size="14.00">updated_at :datetime</text>
</g>
<!-- Feedback -->
<g id="node3" class="node"><title>Feedback</title>
<polyline fill="none" stroke="black" points="450.06,-1797.2 569.94,-1797.2 "/>
<path fill="none" stroke="black" d="M569.94,-1797.2C575.94,-1797.2 581.94,-1803.2 581.94,-1809.2"/>
<polyline fill="none" stroke="black" points="581.94,-1809.2 581.94,-1918.8 "/>
<path fill="none" stroke="black" d="M581.94,-1918.8C581.94,-1924.8 575.94,-1930.8 569.94,-1930.8"/>
<polyline fill="none" stroke="black" points="569.94,-1930.8 450.06,-1930.8 "/>
<path fill="none" stroke="black" d="M450.06,-1930.8C444.06,-1930.8 438.06,-1924.8 438.06,-1918.8"/>
<polyline fill="none" stroke="black" points="438.06,-1918.8 438.06,-1809.2 "/>
<path fill="none" stroke="black" d="M438.06,-1809.2C438.06,-1803.2 444.06,-1797.2 450.06,-1797.2"/>
<text text-anchor="middle" x="510" y="-1912.8" font-family="Times,serif" font-size="14.00">Feedback</text>
<polyline fill="none" stroke="black" points="438.06,-1906 581.94,-1906 "/>
<text text-anchor="start" x="446.06" y="-1888" font-family="Times,serif" font-size="14.00">subject :string</text>
<text text-anchor="start" x="446.06" y="-1871.2" font-family="Times,serif" font-size="14.00">description :string</text>
<text text-anchor="start" x="446.06" y="-1854.4" font-family="Times,serif" font-size="14.00">status :integer</text>
<text text-anchor="start" x="446.06" y="-1837.6" font-family="Times,serif" font-size="14.00">created_at :datetime</text>
<text text-anchor="start" x="446.06" y="-1820.8" font-family="Times,serif" font-size="14.00">updated_at :datetime</text>
<text text-anchor="start" x="446.06" y="-1804" font-family="Times,serif" font-size="14.00">feedback_type :integer</text>
</g>
<!-- RawEvent -->
<g id="node5" class="node"><title>RawEvent</title>
<polyline fill="none" stroke="black" points="369.153,-0.8 482.847,-0.8 "/>
<path fill="none" stroke="black" d="M482.847,-0.8C488.847,-0.8 494.847,-6.8 494.847,-12.8"/>
<polyline fill="none" stroke="black" points="494.847,-12.8 494.847,-307.2 "/>
<path fill="none" stroke="black" d="M494.847,-307.2C494.847,-313.2 488.847,-319.2 482.847,-319.2"/>
<polyline fill="none" stroke="black" points="482.847,-319.2 369.153,-319.2 "/>
<path fill="none" stroke="black" d="M369.153,-319.2C363.153,-319.2 357.153,-313.2 357.153,-307.2"/>
<polyline fill="none" stroke="black" points="357.153,-307.2 357.153,-12.8 "/>
<path fill="none" stroke="black" d="M357.153,-12.8C357.153,-6.8 363.153,-0.8 369.153,-0.8"/>
<text text-anchor="middle" x="426" y="-301.2" font-family="Times,serif" font-size="14.00">RawEvent</text>
<polyline fill="none" stroke="black" points="357.153,-294.4 494.847,-294.4 "/>
<text text-anchor="start" x="365.153" y="-276.4" font-family="Times,serif" font-size="14.00">title :string</text>
<text text-anchor="start" x="365.153" y="-259.6" font-family="Times,serif" font-size="14.00">description :text</text>
<text text-anchor="start" x="365.153" y="-242.8" font-family="Times,serif" font-size="14.00">start :datetime</text>
<text text-anchor="start" x="365.153" y="-226" font-family="Times,serif" font-size="14.00">end :datetime</text>
<text text-anchor="start" x="365.153" y="-209.2" font-family="Times,serif" font-size="14.00">latitude :float</text>
<text text-anchor="start" x="365.153" y="-192.4" font-family="Times,serif" font-size="14.00">longitude :float</text>
<text text-anchor="start" x="365.153" y="-175.6" font-family="Times,serif" font-size="14.00">venue_name :string</text>
<text text-anchor="start" x="365.153" y="-158.8" font-family="Times,serif" font-size="14.00">venue_address :string</text>
<text text-anchor="start" x="365.153" y="-142" font-family="Times,serif" font-size="14.00">venue_city :string</text>
<text text-anchor="start" x="365.153" y="-125.2" font-family="Times,serif" font-size="14.00">venue_state :string</text>
<text text-anchor="start" x="365.153" y="-108.4" font-family="Times,serif" font-size="14.00">venue_zip :string</text>
<text text-anchor="start" x="365.153" y="-91.6" font-family="Times,serif" font-size="14.00">url :string</text>
<text text-anchor="start" x="365.153" y="-74.8" font-family="Times,serif" font-size="14.00">from :string</text>
<text text-anchor="start" x="365.153" y="-58" font-family="Times,serif" font-size="14.00">created_at :datetime</text>
<text text-anchor="start" x="365.153" y="-41.2" font-family="Times,serif" font-size="14.00">updated_at :datetime</text>
<text text-anchor="start" x="365.153" y="-24.4" font-family="Times,serif" font-size="14.00">deleted :boolean</text>
<text text-anchor="start" x="365.153" y="-7.6" font-family="Times,serif" font-size="14.00">submitted :boolean</text>
</g>
<!-- RawVenue -->
<g id="node6" class="node"><title>RawVenue</title>
<polyline fill="none" stroke="black" points="371.495,-358.8 480.505,-358.8 "/>
<path fill="none" stroke="black" d="M480.505,-358.8C486.505,-358.8 492.505,-364.8 492.505,-370.8"/>
<polyline fill="none" stroke="black" points="492.505,-370.8 492.505,-665.2 "/>
<path fill="none" stroke="black" d="M492.505,-665.2C492.505,-671.2 486.505,-677.2 480.505,-677.2"/>
<polyline fill="none" stroke="black" points="480.505,-677.2 371.495,-677.2 "/>
<path fill="none" stroke="black" d="M371.495,-677.2C365.495,-677.2 359.495,-671.2 359.495,-665.2"/>
<polyline fill="none" stroke="black" points="359.495,-665.2 359.495,-370.8 "/>
<path fill="none" stroke="black" d="M359.495,-370.8C359.495,-364.8 365.495,-358.8 371.495,-358.8"/>
<text text-anchor="middle" x="426" y="-659.2" font-family="Times,serif" font-size="14.00">RawVenue</text>
<polyline fill="none" stroke="black" points="359.495,-652.4 492.505,-652.4 "/>
<text text-anchor="start" x="367.495" y="-634.4" font-family="Times,serif" font-size="14.00">name :string</text>
<text text-anchor="start" x="367.495" y="-617.6" font-family="Times,serif" font-size="14.00">address :string</text>
<text text-anchor="start" x="367.495" y="-600.8" font-family="Times,serif" font-size="14.00">address2 :string</text>
<text text-anchor="start" x="367.495" y="-584" font-family="Times,serif" font-size="14.00">city :string</text>
<text text-anchor="start" x="367.495" y="-567.2" font-family="Times,serif" font-size="14.00">zip :integer</text>
<text text-anchor="start" x="367.495" y="-550.4" font-family="Times,serif" font-size="14.00">state_code :string</text>
<text text-anchor="start" x="367.495" y="-533.6" font-family="Times,serif" font-size="14.00">phone :string</text>
<text text-anchor="start" x="367.495" y="-516.8" font-family="Times,serif" font-size="14.00">latitude :float</text>
<text text-anchor="start" x="367.495" y="-500" font-family="Times,serif" font-size="14.00">longitude :float</text>
<text text-anchor="start" x="367.495" y="-483.2" font-family="Times,serif" font-size="14.00">rating :integer</text>
<text text-anchor="start" x="367.495" y="-466.4" font-family="Times,serif" font-size="14.00">categories :text</text>
<text text-anchor="start" x="367.495" y="-449.6" font-family="Times,serif" font-size="14.00">neighborhoods :text</text>
<text text-anchor="start" x="367.495" y="-432.8" font-family="Times,serif" font-size="14.00">created_at :datetime</text>
<text text-anchor="start" x="367.495" y="-416" font-family="Times,serif" font-size="14.00">updated_at :datetime</text>
<text text-anchor="start" x="367.495" y="-399.2" font-family="Times,serif" font-size="14.00">from :string</text>
<text text-anchor="start" x="367.495" y="-382.4" font-family="Times,serif" font-size="14.00">url :string</text>
<text text-anchor="start" x="367.495" y="-365.6" font-family="Times,serif" font-size="14.00">description :text</text>
</g>
<!-- RawVenue&#45;&gt;RawEvent -->
<g id="edge8" class="edge"><title>RawVenue&#45;&gt;RawEvent</title>
<path fill="none" stroke="#cfb560" d="M426,-350.479C426,-343.512 426,-336.523 426,-329.552"/>
<ellipse fill="none" stroke="#cfb560" cx="426" cy="-354.78" rx="4" ry="4"/>
<polygon fill="#cfb560" stroke="#cfb560" points="426,-329.359 430.5,-319.359 426,-324.359 426,-319.359 426,-319.359 426,-319.359 426,-324.359 421.5,-319.359 426,-329.359 426,-329.359"/>
</g>
<!-- Recurrence&#45;&gt;Occurrence -->
<g id="edge10" class="edge"><title>Recurrence&#45;&gt;Occurrence</title>
<path fill="none" stroke="#82e04a" d="M111.121,-1033.08C102.2,-997.273 92.6704,-959.024 84.845,-927.614"/>
<ellipse fill="none" stroke="#82e04a" cx="112.12" cy="-1037.09" rx="4.00001" ry="4.00001"/>
<polygon fill="#82e04a" stroke="#82e04a" points="84.7846,-927.371 86.7336,-916.58 83.5758,-922.519 82.3671,-917.668 82.3671,-917.668 82.3671,-917.668 83.5758,-922.519 78.0005,-918.756 84.7846,-927.371 84.7846,-927.371"/>
</g>
<!-- Role -->
<g id="node8" class="node"><title>Role</title>
<polyline fill="none" stroke="black" points="148.102,-1814 257.898,-1814 "/>
<path fill="none" stroke="black" d="M257.898,-1814C263.898,-1814 269.898,-1820 269.898,-1826"/>
<polyline fill="none" stroke="black" points="269.898,-1826 269.898,-1902 "/>
<path fill="none" stroke="black" d="M269.898,-1902C269.898,-1908 263.898,-1914 257.898,-1914"/>
<polyline fill="none" stroke="black" points="257.898,-1914 148.102,-1914 "/>
<path fill="none" stroke="black" d="M148.102,-1914C142.102,-1914 136.102,-1908 136.102,-1902"/>
<polyline fill="none" stroke="black" points="136.102,-1902 136.102,-1826 "/>
<path fill="none" stroke="black" d="M136.102,-1826C136.102,-1820 142.102,-1814 148.102,-1814"/>
<text text-anchor="middle" x="203" y="-1896" font-family="Times,serif" font-size="14.00">Role</text>
<polyline fill="none" stroke="black" points="136.102,-1889.2 269.898,-1889.2 "/>
<text text-anchor="start" x="144.102" y="-1871.2" font-family="Times,serif" font-size="14.00">name :string</text>
<text text-anchor="start" x="144.102" y="-1854.4" font-family="Times,serif" font-size="14.00">resource_type :string</text>
<text text-anchor="start" x="144.102" y="-1837.6" font-family="Times,serif" font-size="14.00">created_at :datetime</text>
<text text-anchor="start" x="144.102" y="-1820.8" font-family="Times,serif" font-size="14.00">updated_at :datetime</text>
</g>
<!-- User -->
<g id="node11" class="node"><title>User</title>
<polyline fill="none" stroke="black" points="112.722,-1489 293.278,-1489 "/>
<path fill="none" stroke="black" d="M293.278,-1489C299.278,-1489 305.278,-1495 305.278,-1501"/>
<polyline fill="none" stroke="black" points="305.278,-1501 305.278,-1745 "/>
<path fill="none" stroke="black" d="M305.278,-1745C305.278,-1751 299.278,-1757 293.278,-1757"/>
<polyline fill="none" stroke="black" points="293.278,-1757 112.722,-1757 "/>
<path fill="none" stroke="black" d="M112.722,-1757C106.722,-1757 100.722,-1751 100.722,-1745"/>
<polyline fill="none" stroke="black" points="100.722,-1745 100.722,-1501 "/>
<path fill="none" stroke="black" d="M100.722,-1501C100.722,-1495 106.722,-1489 112.722,-1489"/>
<text text-anchor="middle" x="203" y="-1739" font-family="Times,serif" font-size="14.00">User</text>
<polyline fill="none" stroke="black" points="100.722,-1732.2 305.278,-1732.2 "/>
<text text-anchor="start" x="108.722" y="-1714.2" font-family="Times,serif" font-size="14.00">email :string</text>
<text text-anchor="start" x="108.722" y="-1697.4" font-family="Times,serif" font-size="14.00">encrypted_password :string</text>
<text text-anchor="start" x="108.722" y="-1680.6" font-family="Times,serif" font-size="14.00">reset_password_token :string</text>
<text text-anchor="start" x="108.722" y="-1663.8" font-family="Times,serif" font-size="14.00">reset_password_sent_at :datetime</text>
<text text-anchor="start" x="108.722" y="-1647" font-family="Times,serif" font-size="14.00">remember_created_at :datetime</text>
<text text-anchor="start" x="108.722" y="-1630.2" font-family="Times,serif" font-size="14.00">current_sign_in_at :datetime</text>
<text text-anchor="start" x="108.722" y="-1613.4" font-family="Times,serif" font-size="14.00">last_sign_in_at :datetime</text>
<text text-anchor="start" x="108.722" y="-1596.6" font-family="Times,serif" font-size="14.00">current_sign_in_ip :string</text>
<text text-anchor="start" x="108.722" y="-1579.8" font-family="Times,serif" font-size="14.00">last_sign_in_ip :string</text>
<text text-anchor="start" x="108.722" y="-1563" font-family="Times,serif" font-size="14.00">created_at :datetime</text>
<text text-anchor="start" x="108.722" y="-1546.2" font-family="Times,serif" font-size="14.00">updated_at :datetime</text>
<text text-anchor="start" x="108.722" y="-1529.4" font-family="Times,serif" font-size="14.00">firstname :string</text>
<text text-anchor="start" x="108.722" y="-1512.6" font-family="Times,serif" font-size="14.00">lastname :string</text>
<text text-anchor="start" x="108.722" y="-1495.8" font-family="Times,serif" font-size="14.00">username :string</text>
</g>
<!-- Role&#45;&gt;User -->
<g id="edge12" class="edge"><title>Role&#45;&gt;User</title>
<path fill="none" stroke="#5fd842" d="M203,-1803.61C203,-1792.28 203,-1779.98 203,-1767.3"/>
<polygon fill="#5fd842" stroke="#5fd842" points="203,-1803.77 198.5,-1813.77 203,-1808.77 203,-1813.77 203,-1813.77 203,-1813.77 203,-1808.77 207.5,-1813.77 203,-1803.77 203,-1803.77"/>
<polygon fill="#5fd842" stroke="#5fd842" points="203,-1767.07 207.5,-1757.07 203,-1762.07 203,-1757.07 203,-1757.07 203,-1757.07 203,-1762.07 198.5,-1757.07 203,-1767.07 203,-1767.07"/>
</g>
<!-- Tag&#45;&gt;Tag -->
<g id="edge16" class="edge"><title>Tag&#45;&gt;Tag</title>
<path fill="none" stroke="#effa1a" d="M375.046,-1168.52C381.184,-1164.53 385,-1158.35 385,-1150 385,-1142.36 381.806,-1136.54 376.562,-1132.55"/>
<ellipse fill="none" stroke="#effa1a" cx="371.174" cy="-1170.31" rx="4.00002" ry="4.00002"/>
<polygon fill="#effa1a" stroke="#effa1a" points="376.475,-1132.5 369.57,-1123.99 372.01,-1130.26 367.545,-1128.01 367.545,-1128.01 367.545,-1128.01 372.01,-1130.26 365.52,-1132.02 376.475,-1132.5 376.475,-1132.5"/>
<text text-anchor="middle" x="412.115" y="-1144.4" font-family="Times,serif" font-size="14.00">childTags</text>
</g>
<!-- Venue -->
<g id="node12" class="node"><title>Venue</title>
<polyline fill="none" stroke="black" points="371.495,-716.6 480.505,-716.6 "/>
<path fill="none" stroke="black" d="M480.505,-716.6C486.505,-716.6 492.505,-722.6 492.505,-728.6"/>
<polyline fill="none" stroke="black" points="492.505,-728.6 492.505,-989.4 "/>
<path fill="none" stroke="black" d="M492.505,-989.4C492.505,-995.4 486.505,-1001.4 480.505,-1001.4"/>
<polyline fill="none" stroke="black" points="480.505,-1001.4 371.495,-1001.4 "/>
<path fill="none" stroke="black" d="M371.495,-1001.4C365.495,-1001.4 359.495,-995.4 359.495,-989.4"/>
<polyline fill="none" stroke="black" points="359.495,-989.4 359.495,-728.6 "/>
<path fill="none" stroke="black" d="M359.495,-728.6C359.495,-722.6 365.495,-716.6 371.495,-716.6"/>
<text text-anchor="middle" x="426" y="-983.4" font-family="Times,serif" font-size="14.00">Venue</text>
<polyline fill="none" stroke="black" points="359.495,-976.6 492.505,-976.6 "/>
<text text-anchor="start" x="367.495" y="-958.6" font-family="Times,serif" font-size="14.00">name :string</text>
<text text-anchor="start" x="367.495" y="-941.8" font-family="Times,serif" font-size="14.00">description :text</text>
<text text-anchor="start" x="367.495" y="-925" font-family="Times,serif" font-size="14.00">address :string</text>
<text text-anchor="start" x="367.495" y="-908.2" font-family="Times,serif" font-size="14.00">address2 :string</text>
<text text-anchor="start" x="367.495" y="-891.4" font-family="Times,serif" font-size="14.00">city :string</text>
<text text-anchor="start" x="367.495" y="-874.6" font-family="Times,serif" font-size="14.00">state :string</text>
<text text-anchor="start" x="367.495" y="-857.8" font-family="Times,serif" font-size="14.00">zip :integer</text>
<text text-anchor="start" x="367.495" y="-841" font-family="Times,serif" font-size="14.00">latitude :float</text>
<text text-anchor="start" x="367.495" y="-824.2" font-family="Times,serif" font-size="14.00">longitude :float</text>
<text text-anchor="start" x="367.495" y="-807.4" font-family="Times,serif" font-size="14.00">created_at :datetime</text>
<text text-anchor="start" x="367.495" y="-790.6" font-family="Times,serif" font-size="14.00">updated_at :datetime</text>
<text text-anchor="start" x="367.495" y="-773.8" font-family="Times,serif" font-size="14.00">phonenumber :string</text>
<text text-anchor="start" x="367.495" y="-757" font-family="Times,serif" font-size="14.00">url :string</text>
<text text-anchor="start" x="367.495" y="-740.2" font-family="Times,serif" font-size="14.00">clicks :integer</text>
<text text-anchor="start" x="367.495" y="-723.4" font-family="Times,serif" font-size="14.00">views :integer</text>
</g>
<!-- Tag&#45;&gt;Venue -->
<g id="edge14" class="edge"><title>Tag&#45;&gt;Venue</title>
<path fill="none" stroke="#0293f7" d="M322.664,-1098.91C333.394,-1074.11 346.979,-1042.7 360.742,-1010.88"/>
<polygon fill="#0293f7" stroke="#0293f7" points="322.614,-1099.03 314.514,-1106.42 320.629,-1103.62 318.644,-1108.21 318.644,-1108.21 318.644,-1108.21 320.629,-1103.62 322.775,-1109.99 322.614,-1099.03 322.614,-1099.03"/>
<polygon fill="#0293f7" stroke="#0293f7" points="360.851,-1010.62 368.951,-1003.23 362.836,-1006.04 364.821,-1001.45 364.821,-1001.45 364.821,-1001.45 362.836,-1006.04 360.69,-999.66 360.851,-1010.62 360.851,-1010.62"/>
</g>
<!-- TagsVenues -->
<g id="node10" class="node"><title>TagsVenues</title>
<polyline fill="none" stroke="black" points="611.495,-1830.8 720.505,-1830.8 "/>
<path fill="none" stroke="black" d="M720.505,-1830.8C726.505,-1830.8 732.505,-1836.8 732.505,-1842.8"/>
<polyline fill="none" stroke="black" points="732.505,-1842.8 732.505,-1885.2 "/>
<path fill="none" stroke="black" d="M732.505,-1885.2C732.505,-1891.2 726.505,-1897.2 720.505,-1897.2"/>
<polyline fill="none" stroke="black" points="720.505,-1897.2 611.495,-1897.2 "/>
<path fill="none" stroke="black" d="M611.495,-1897.2C605.495,-1897.2 599.495,-1891.2 599.495,-1885.2"/>
<polyline fill="none" stroke="black" points="599.495,-1885.2 599.495,-1842.8 "/>
<path fill="none" stroke="black" d="M599.495,-1842.8C599.495,-1836.8 605.495,-1830.8 611.495,-1830.8"/>
<text text-anchor="middle" x="666" y="-1879.2" font-family="Times,serif" font-size="14.00">TagsVenues</text>
<polyline fill="none" stroke="black" points="599.495,-1872.4 732.505,-1872.4 "/>
<text text-anchor="start" x="607.495" y="-1854.4" font-family="Times,serif" font-size="14.00">created_at :datetime</text>
<text text-anchor="start" x="607.495" y="-1837.6" font-family="Times,serif" font-size="14.00">updated_at :datetime</text>
</g>
<!-- User&#45;&gt;Event -->
<g id="edge18" class="edge"><title>User&#45;&gt;Event</title>
<path fill="none" stroke="#bbfd03" d="M203,-1480.5C203,-1473.29 203,-1466.17 203,-1459.23"/>
<ellipse fill="none" stroke="#bbfd03" cx="203" cy="-1484.74" rx="4" ry="4"/>
<polygon fill="#bbfd03" stroke="#bbfd03" points="203,-1459.2 207.5,-1449.2 203,-1454.2 203,-1449.2 203,-1449.2 203,-1449.2 203,-1454.2 198.5,-1449.2 203,-1459.2 203,-1459.2"/>
</g>
<!-- Venue&#45;&gt;Event -->
<g id="edge20" class="edge"><title>Venue&#45;&gt;Event</title>
<path fill="none" stroke="#2125c8" d="M474.314,-1010.05C490.736,-1090.13 494.758,-1186.94 448,-1260 411.122,-1317.62 336.579,-1346.27 279.351,-1360.26"/>
<ellipse fill="none" stroke="#2125c8" cx="473.408" cy="-1005.78" rx="4.00001" ry="4.00001"/>
<polygon fill="#2125c8" stroke="#2125c8" points="279.34,-1360.26 268.578,-1358.16 274.472,-1361.4 269.604,-1362.54 269.604,-1362.54 269.604,-1362.54 274.472,-1361.4 270.63,-1366.92 279.34,-1360.26 279.34,-1360.26"/>
</g>
<!-- Venue&#45;&gt;RawVenue -->
<g id="edge22" class="edge"><title>Venue&#45;&gt;RawVenue</title>
<path fill="none" stroke="#b3cebe" d="M426,-708.019C426,-701.148 426,-694.234 426,-687.322"/>
<ellipse fill="none" stroke="#b3cebe" cx="426" cy="-712.198" rx="4" ry="4"/>
<polygon fill="#b3cebe" stroke="#b3cebe" points="426,-687.202 430.5,-677.202 426,-682.202 426,-677.202 426,-677.202 426,-677.202 426,-682.202 421.5,-677.202 426,-687.202 426,-687.202"/>
</g>
</g>
</svg>
