<?xml version="1.0" encoding="UTF-8" standalone="no"?>
<!DOCTYPE svg PUBLIC "-//W3C//DTD SVG 1.1//EN"
 "http://www.w3.org/Graphics/SVG/1.1/DTD/svg11.dtd">
<!-- Generated by graphviz version 2.28.0 (20120531.2029)
 -->
<!-- Title: models_diagram Pages: 1 -->
<svg width="1127pt" height="1716pt"
 viewBox="0.00 0.00 1127.00 1716.00" xmlns="http://www.w3.org/2000/svg" xmlns:xlink="http://www.w3.org/1999/xlink">
<g id="graph1" class="graph" transform="scale(1 1) rotate(0) translate(4 1712)">
<title>models_diagram</title>
<polygon fill="white" stroke="white" points="-4,5 -4,-1712 1124,-1712 1124,5 -4,5"/>
<!-- Act -->
<g id="node1" class="node"><title>Act</title>
<polyline fill="none" stroke="black" points="172.495,-1590 281.505,-1590 "/>
<path fill="none" stroke="black" d="M281.505,-1590C287.505,-1590 293.505,-1596 293.505,-1602"/>
<polyline fill="none" stroke="black" points="293.505,-1602 293.505,-1678 "/>
<path fill="none" stroke="black" d="M293.505,-1678C293.505,-1684 287.505,-1690 281.505,-1690"/>
<polyline fill="none" stroke="black" points="281.505,-1690 172.495,-1690 "/>
<path fill="none" stroke="black" d="M172.495,-1690C166.495,-1690 160.495,-1684 160.495,-1678"/>
<polyline fill="none" stroke="black" points="160.495,-1678 160.495,-1602 "/>
<path fill="none" stroke="black" d="M160.495,-1602C160.495,-1596 166.495,-1590 172.495,-1590"/>
<text text-anchor="middle" x="227" y="-1672" font-family="Times,serif" font-size="14.00">Act</text>
<polyline fill="none" stroke="black" points="160.495,-1665.2 293.505,-1665.2 "/>
<text text-anchor="start" x="168.495" y="-1647.2" font-family="Times,serif" font-size="14.00">name :string</text>
<text text-anchor="start" x="168.495" y="-1630.4" font-family="Times,serif" font-size="14.00">description :text</text>
<text text-anchor="start" x="168.495" y="-1613.6" font-family="Times,serif" font-size="14.00">created_at :datetime</text>
<text text-anchor="start" x="168.495" y="-1596.8" font-family="Times,serif" font-size="14.00">updated_at :datetime</text>
</g>
<!-- Bookmark -->
<g id="node4" class="node"><title>Bookmark</title>
<polyline fill="none" stroke="black" points="72.8188,-118.4 205.181,-118.4 "/>
<path fill="none" stroke="black" d="M205.181,-118.4C211.181,-118.4 217.181,-124.4 217.181,-130.4"/>
<polyline fill="none" stroke="black" points="217.181,-130.4 217.181,-189.6 "/>
<path fill="none" stroke="black" d="M217.181,-189.6C217.181,-195.6 211.181,-201.6 205.181,-201.6"/>
<polyline fill="none" stroke="black" points="205.181,-201.6 72.8188,-201.6 "/>
<path fill="none" stroke="black" d="M72.8188,-201.6C66.8188,-201.6 60.8188,-195.6 60.8188,-189.6"/>
<polyline fill="none" stroke="black" points="60.8188,-189.6 60.8188,-130.4 "/>
<path fill="none" stroke="black" d="M60.8188,-130.4C60.8188,-124.4 66.8188,-118.4 72.8188,-118.4"/>
<text text-anchor="middle" x="139" y="-183.6" font-family="Times,serif" font-size="14.00">Bookmark</text>
<polyline fill="none" stroke="black" points="60.8188,-176.8 217.181,-176.8 "/>
<text text-anchor="start" x="68.8188" y="-158.8" font-family="Times,serif" font-size="14.00">created_at :datetime</text>
<text text-anchor="start" x="68.8188" y="-142" font-family="Times,serif" font-size="14.00">updated_at :datetime</text>
<text text-anchor="start" x="68.8188" y="-125.2" font-family="Times,serif" font-size="14.00">bookmarked_type :string</text>
</g>
<!-- Act&#45;&gt;Bookmark -->
<g id="edge8" class="edge"><title>Act&#45;&gt;Bookmark</title>
<path fill="none" stroke="#b28268" d="M152.866,-1615.08C86.6384,-1588.51 0,-1538.55 0,-1459 0,-1459 0,-1459 0,-534 0,-411.645 66.4861,-280.12 107.494,-210.634"/>
<ellipse fill="none" stroke="#b28268" cx="156.703" cy="-1616.58" rx="4.00001" ry="4.00001"/>
<polygon fill="#b28268" stroke="#b28268" points="107.728,-210.242 116.719,-203.963 110.292,-205.949 112.855,-201.656 112.855,-201.656 112.855,-201.656 110.292,-205.949 108.992,-199.349 107.728,-210.242 107.728,-210.242"/>
</g>
<!-- Embed -->
<g id="node5" class="node"><title>Embed</title>
<polyline fill="none" stroke="black" points="997.495,-1408 1106.51,-1408 "/>
<path fill="none" stroke="black" d="M1106.51,-1408C1112.51,-1408 1118.51,-1414 1118.51,-1420"/>
<polyline fill="none" stroke="black" points="1118.51,-1420 1118.51,-1496 "/>
<path fill="none" stroke="black" d="M1118.51,-1496C1118.51,-1502 1112.51,-1508 1106.51,-1508"/>
<polyline fill="none" stroke="black" points="1106.51,-1508 997.495,-1508 "/>
<path fill="none" stroke="black" d="M997.495,-1508C991.495,-1508 985.495,-1502 985.495,-1496"/>
<polyline fill="none" stroke="black" points="985.495,-1496 985.495,-1420 "/>
<path fill="none" stroke="black" d="M985.495,-1420C985.495,-1414 991.495,-1408 997.495,-1408"/>
<text text-anchor="middle" x="1052" y="-1490" font-family="Times,serif" font-size="14.00">Embed</text>
<polyline fill="none" stroke="black" points="985.495,-1483.2 1118.51,-1483.2 "/>
<text text-anchor="start" x="993.495" y="-1465.2" font-family="Times,serif" font-size="14.00">created_at :datetime</text>
<text text-anchor="start" x="993.495" y="-1448.4" font-family="Times,serif" font-size="14.00">updated_at :datetime</text>
<text text-anchor="start" x="993.495" y="-1431.6" font-family="Times,serif" font-size="14.00">primary :boolean</text>
<text text-anchor="start" x="993.495" y="-1414.8" font-family="Times,serif" font-size="14.00">source :text</text>
</g>
<!-- Act&#45;&gt;Embed -->
<g id="edge6" class="edge"><title>Act&#45;&gt;Embed</title>
<path fill="none" stroke="#f8d774" d="M278.876,-1584.86C286.154,-1579.7 293.924,-1575.21 302,-1572 371.11,-1544.56 903.909,-1586.07 971,-1554 988.735,-1545.52 1004.07,-1531.13 1016.48,-1516.08"/>
<ellipse fill="none" stroke="#f8d774" cx="275.536" cy="-1587.36" rx="4.00002" ry="4.00002"/>
<polygon fill="#f8d774" stroke="#f8d774" points="1016.52,-1516.03 1026.24,-1510.95 1019.61,-1512.1 1022.7,-1508.17 1022.7,-1508.17 1022.7,-1508.17 1019.61,-1512.1 1019.16,-1505.39 1016.52,-1516.03 1016.52,-1516.03"/>
</g>
<!-- Event -->
<g id="node6" class="node"><title>Event</title>
<polyline fill="none" stroke="black" points="410.495,-1382.8 519.505,-1382.8 "/>
<path fill="none" stroke="black" d="M519.505,-1382.8C525.505,-1382.8 531.505,-1388.8 531.505,-1394.8"/>
<polyline fill="none" stroke="black" points="531.505,-1394.8 531.505,-1521.2 "/>
<path fill="none" stroke="black" d="M531.505,-1521.2C531.505,-1527.2 525.505,-1533.2 519.505,-1533.2"/>
<polyline fill="none" stroke="black" points="519.505,-1533.2 410.495,-1533.2 "/>
<path fill="none" stroke="black" d="M410.495,-1533.2C404.495,-1533.2 398.495,-1527.2 398.495,-1521.2"/>
<polyline fill="none" stroke="black" points="398.495,-1521.2 398.495,-1394.8 "/>
<path fill="none" stroke="black" d="M398.495,-1394.8C398.495,-1388.8 404.495,-1382.8 410.495,-1382.8"/>
<text text-anchor="middle" x="465" y="-1515.2" font-family="Times,serif" font-size="14.00">Event</text>
<polyline fill="none" stroke="black" points="398.495,-1508.4 531.505,-1508.4 "/>
<text text-anchor="start" x="406.495" y="-1490.4" font-family="Times,serif" font-size="14.00">title :string</text>
<text text-anchor="start" x="406.495" y="-1473.6" font-family="Times,serif" font-size="14.00">description :text</text>
<text text-anchor="start" x="406.495" y="-1456.8" font-family="Times,serif" font-size="14.00">price :decimal</text>
<text text-anchor="start" x="406.495" y="-1440" font-family="Times,serif" font-size="14.00">created_at :datetime</text>
<text text-anchor="start" x="406.495" y="-1423.2" font-family="Times,serif" font-size="14.00">updated_at :datetime</text>
<text text-anchor="start" x="406.495" y="-1406.4" font-family="Times,serif" font-size="14.00">clicks :integer</text>
<text text-anchor="start" x="406.495" y="-1389.6" font-family="Times,serif" font-size="14.00">views :integer</text>
</g>
<!-- Act&#45;&gt;Event -->
<g id="edge2" class="edge"><title>Act&#45;&gt;Event</title>
<path fill="none" stroke="#9f4c00" d="M288.152,-1583.28C292.784,-1579.4 297.433,-1575.6 302,-1572 329.813,-1550.07 361.591,-1527.52 389.656,-1508.39"/>
<polygon fill="#9f4c00" stroke="#9f4c00" points="288.011,-1583.4 277.477,-1586.45 284.201,-1586.64 280.392,-1589.88 280.392,-1589.88 280.392,-1589.88 284.201,-1586.64 283.306,-1593.31 288.011,-1583.4 288.011,-1583.4"/>
<polygon fill="#9f4c00" stroke="#9f4c00" points="389.964,-1508.18 400.765,-1506.29 394.101,-1505.37 398.239,-1502.57 398.239,-1502.57 398.239,-1502.57 394.101,-1505.37 395.712,-1498.84 389.964,-1508.18 389.964,-1508.18"/>
</g>
<!-- Tag -->
<g id="node14" class="node"><title>Tag</title>
<polyline fill="none" stroke="black" points="205.495,-1192.4 314.505,-1192.4 "/>
<path fill="none" stroke="black" d="M314.505,-1192.4C320.505,-1192.4 326.505,-1198.4 326.505,-1204.4"/>
<polyline fill="none" stroke="black" points="326.505,-1204.4 326.505,-1263.6 "/>
<path fill="none" stroke="black" d="M326.505,-1263.6C326.505,-1269.6 320.505,-1275.6 314.505,-1275.6"/>
<polyline fill="none" stroke="black" points="314.505,-1275.6 205.495,-1275.6 "/>
<path fill="none" stroke="black" d="M205.495,-1275.6C199.495,-1275.6 193.495,-1269.6 193.495,-1263.6"/>
<polyline fill="none" stroke="black" points="193.495,-1263.6 193.495,-1204.4 "/>
<path fill="none" stroke="black" d="M193.495,-1204.4C193.495,-1198.4 199.495,-1192.4 205.495,-1192.4"/>
<text text-anchor="middle" x="260" y="-1257.6" font-family="Times,serif" font-size="14.00">Tag</text>
<polyline fill="none" stroke="black" points="193.495,-1250.8 326.505,-1250.8 "/>
<text text-anchor="start" x="201.495" y="-1232.8" font-family="Times,serif" font-size="14.00">name :string</text>
<text text-anchor="start" x="201.495" y="-1216" font-family="Times,serif" font-size="14.00">created_at :datetime</text>
<text text-anchor="start" x="201.495" y="-1199.2" font-family="Times,serif" font-size="14.00">updated_at :datetime</text>
</g>
<!-- Act&#45;&gt;Tag -->
<g id="edge4" class="edge"><title>Act&#45;&gt;Tag</title>
<path fill="none" stroke="#82c330" d="M231.834,-1579.83C238.314,-1500.49 249.71,-1360.97 255.832,-1286.02"/>
<polygon fill="#82c330" stroke="#82c330" points="231.828,-1579.9 226.528,-1589.5 231.421,-1584.88 231.013,-1589.87 231.013,-1589.87 231.013,-1589.87 231.421,-1584.88 235.499,-1590.23 231.828,-1579.9 231.828,-1579.9"/>
<polygon fill="#82c330" stroke="#82c330" points="255.846,-1285.86 261.145,-1276.26 256.253,-1280.87 256.66,-1275.89 256.66,-1275.89 256.66,-1275.89 256.253,-1280.87 252.175,-1275.53 255.846,-1285.86 255.846,-1285.86"/>
</g>
<!-- User -->
<g id="node16" class="node"><title>User</title>
<polyline fill="none" stroke="black" points="414.722,-359 595.278,-359 "/>
<path fill="none" stroke="black" d="M595.278,-359C601.278,-359 607.278,-365 607.278,-371"/>
<polyline fill="none" stroke="black" points="607.278,-371 607.278,-699 "/>
<path fill="none" stroke="black" d="M607.278,-699C607.278,-705 601.278,-711 595.278,-711"/>
<polyline fill="none" stroke="black" points="595.278,-711 414.722,-711 "/>
<path fill="none" stroke="black" d="M414.722,-711C408.722,-711 402.722,-705 402.722,-699"/>
<polyline fill="none" stroke="black" points="402.722,-699 402.722,-371 "/>
<path fill="none" stroke="black" d="M402.722,-371C402.722,-365 408.722,-359 414.722,-359"/>
<text text-anchor="middle" x="505" y="-693" font-family="Times,serif" font-size="14.00">User</text>
<polyline fill="none" stroke="black" points="402.722,-686.2 607.278,-686.2 "/>
<text text-anchor="start" x="410.722" y="-668.2" font-family="Times,serif" font-size="14.00">email :string</text>
<text text-anchor="start" x="410.722" y="-651.4" font-family="Times,serif" font-size="14.00">encrypted_password :string</text>
<text text-anchor="start" x="410.722" y="-634.6" font-family="Times,serif" font-size="14.00">reset_password_token :string</text>
<text text-anchor="start" x="410.722" y="-617.8" font-family="Times,serif" font-size="14.00">reset_password_sent_at :datetime</text>
<text text-anchor="start" x="410.722" y="-601" font-family="Times,serif" font-size="14.00">remember_created_at :datetime</text>
<text text-anchor="start" x="410.722" y="-584.2" font-family="Times,serif" font-size="14.00">current_sign_in_at :datetime</text>
<text text-anchor="start" x="410.722" y="-567.4" font-family="Times,serif" font-size="14.00">last_sign_in_at :datetime</text>
<text text-anchor="start" x="410.722" y="-550.6" font-family="Times,serif" font-size="14.00">current_sign_in_ip :string</text>
<text text-anchor="start" x="410.722" y="-533.8" font-family="Times,serif" font-size="14.00">last_sign_in_ip :string</text>
<text text-anchor="start" x="410.722" y="-517" font-family="Times,serif" font-size="14.00">created_at :datetime</text>
<text text-anchor="start" x="410.722" y="-500.2" font-family="Times,serif" font-size="14.00">updated_at :datetime</text>
<text text-anchor="start" x="410.722" y="-483.4" font-family="Times,serif" font-size="14.00">firstname :string</text>
<text text-anchor="start" x="410.722" y="-466.6" font-family="Times,serif" font-size="14.00">lastname :string</text>
<text text-anchor="start" x="410.722" y="-449.8" font-family="Times,serif" font-size="14.00">username :string</text>
<text text-anchor="start" x="410.722" y="-433" font-family="Times,serif" font-size="14.00">profilepic_file_name :string</text>
<text text-anchor="start" x="410.722" y="-416.2" font-family="Times,serif" font-size="14.00">profilepic_content_type :string</text>
<text text-anchor="start" x="410.722" y="-399.4" font-family="Times,serif" font-size="14.00">profilepic_file_size :integer</text>
<text text-anchor="start" x="410.722" y="-382.6" font-family="Times,serif" font-size="14.00">profilepic_updated_at :datetime</text>
<text text-anchor="start" x="410.722" y="-365.8" font-family="Times,serif" font-size="14.00">profilepic :string</text>
</g>
<!-- Act&#45;&gt;User -->
<g id="edge10" class="edge"><title>Act&#45;&gt;User</title>
<path fill="none" stroke="#74e8df" d="M182.536,-1581.66C141.569,-1524.92 83.6646,-1433.77 60.0205,-1344 35.1168,-1249.45 43.7971,-1220.42 60.0205,-1124 87.9588,-957.952 76.4918,-895.594 184,-766 204.59,-741.18 216.546,-740.61 247,-730 297.097,-712.545 319.096,-738.595 365,-712 375.425,-705.96 385.372,-698.819 394.803,-690.929"/>
<polygon fill="#74e8df" stroke="#74e8df" points="182.562,-1581.69 184.814,-1592.43 185.506,-1585.74 188.451,-1589.78 188.451,-1589.78 188.451,-1589.78 185.506,-1585.74 192.088,-1587.13 182.562,-1581.69 182.562,-1581.69"/>
<polygon fill="#74e8df" stroke="#74e8df" points="395.063,-690.703 405.559,-687.527 398.833,-687.419 402.603,-684.134 402.603,-684.134 402.603,-684.134 398.833,-687.419 399.647,-680.741 395.063,-690.703 395.063,-690.703"/>
<text text-anchor="middle" x="106.49" y="-1228.4" font-family="Times,serif" font-size="14.00">bookmarked_by</text>
</g>
<!-- ActsEvents -->
<g id="node2" class="node"><title>ActsEvents</title>
<polyline fill="none" stroke="black" points="323.117,-1615.6 378.883,-1615.6 "/>
<path fill="none" stroke="black" d="M378.883,-1615.6C384.883,-1615.6 390.883,-1621.6 390.883,-1627.6"/>
<polyline fill="none" stroke="black" points="390.883,-1627.6 390.883,-1652.4 "/>
<path fill="none" stroke="black" d="M390.883,-1652.4C390.883,-1658.4 384.883,-1664.4 378.883,-1664.4"/>
<polyline fill="none" stroke="black" points="378.883,-1664.4 323.117,-1664.4 "/>
<path fill="none" stroke="black" d="M323.117,-1664.4C317.117,-1664.4 311.117,-1658.4 311.117,-1652.4"/>
<polyline fill="none" stroke="black" points="311.117,-1652.4 311.117,-1627.6 "/>
<path fill="none" stroke="black" d="M311.117,-1627.6C311.117,-1621.6 317.117,-1615.6 323.117,-1615.6"/>
<text text-anchor="middle" x="351" y="-1646.4" font-family="Times,serif" font-size="14.00">ActsEvents</text>
<polyline fill="none" stroke="black" points="311.117,-1639.6 390.883,-1639.6 "/>
</g>
<!-- ActsTags -->
<g id="node3" class="node"><title>ActsTags</title>
<polyline fill="none" stroke="black" points="421.051,-1615.6 464.949,-1615.6 "/>
<path fill="none" stroke="black" d="M464.949,-1615.6C470.949,-1615.6 476.949,-1621.6 476.949,-1627.6"/>
<polyline fill="none" stroke="black" points="476.949,-1627.6 476.949,-1652.4 "/>
<path fill="none" stroke="black" d="M476.949,-1652.4C476.949,-1658.4 470.949,-1664.4 464.949,-1664.4"/>
<polyline fill="none" stroke="black" points="464.949,-1664.4 421.051,-1664.4 "/>
<path fill="none" stroke="black" d="M421.051,-1664.4C415.051,-1664.4 409.051,-1658.4 409.051,-1652.4"/>
<polyline fill="none" stroke="black" points="409.051,-1652.4 409.051,-1627.6 "/>
<path fill="none" stroke="black" d="M409.051,-1627.6C409.051,-1621.6 415.051,-1615.6 421.051,-1615.6"/>
<text text-anchor="middle" x="443" y="-1646.4" font-family="Times,serif" font-size="14.00">ActsTags</text>
<polyline fill="none" stroke="black" points="409.051,-1639.6 476.949,-1639.6 "/>
</g>
<!-- Event&#45;&gt;Bookmark -->
<g id="edge12" class="edge"><title>Event&#45;&gt;Bookmark</title>
<path fill="none" stroke="#b5d645" d="M390.516,-1449.23C324.377,-1438 231.119,-1410.62 184,-1344 150.886,-1297.18 141.306,-432.577 139.396,-211.921"/>
<ellipse fill="none" stroke="#b5d645" cx="394.495" cy="-1449.87" rx="4.00001" ry="4.00001"/>
<polygon fill="#b5d645" stroke="#b5d645" points="139.393,-211.604 143.808,-201.566 139.351,-206.604 139.308,-201.605 139.308,-201.605 139.308,-201.605 139.351,-206.604 134.808,-201.643 139.393,-211.604 139.393,-211.604"/>
</g>
<!-- Occurrence -->
<g id="node9" class="node"><title>Occurrence</title>
<polyline fill="none" stroke="black" points="613.164,-859.6 726.836,-859.6 "/>
<path fill="none" stroke="black" d="M726.836,-859.6C732.836,-859.6 738.836,-865.6 738.836,-871.6"/>
<polyline fill="none" stroke="black" points="738.836,-871.6 738.836,-964.4 "/>
<path fill="none" stroke="black" d="M738.836,-964.4C738.836,-970.4 732.836,-976.4 726.836,-976.4"/>
<polyline fill="none" stroke="black" points="726.836,-976.4 613.164,-976.4 "/>
<path fill="none" stroke="black" d="M613.164,-976.4C607.164,-976.4 601.164,-970.4 601.164,-964.4"/>
<polyline fill="none" stroke="black" points="601.164,-964.4 601.164,-871.6 "/>
<path fill="none" stroke="black" d="M601.164,-871.6C601.164,-865.6 607.164,-859.6 613.164,-859.6"/>
<text text-anchor="middle" x="670" y="-958.4" font-family="Times,serif" font-size="14.00">Occurrence</text>
<polyline fill="none" stroke="black" points="601.164,-951.6 738.836,-951.6 "/>
<text text-anchor="start" x="609.164" y="-933.6" font-family="Times,serif" font-size="14.00">start :datetime</text>
<text text-anchor="start" x="609.164" y="-916.8" font-family="Times,serif" font-size="14.00">end :datetime</text>
<text text-anchor="start" x="609.164" y="-900" font-family="Times,serif" font-size="14.00">created_at :datetime</text>
<text text-anchor="start" x="609.164" y="-883.2" font-family="Times,serif" font-size="14.00">updated_at :datetime</text>
<text text-anchor="start" x="609.164" y="-866.4" font-family="Times,serif" font-size="14.00">day_of_week :integer</text>
</g>
<!-- Event&#45;&gt;Occurrence -->
<g id="edge20" class="edge"><title>Event&#45;&gt;Occurrence</title>
<path fill="none" stroke="#a0298f" d="M539.567,-1444.53C596.756,-1430.63 671.972,-1401.96 709,-1344 779.053,-1234.36 734.651,-1075.16 699.852,-985.983"/>
<ellipse fill="none" stroke="#a0298f" cx="535.517" cy="-1445.48" rx="4.00001" ry="4.00001"/>
<polygon fill="#a0298f" stroke="#a0298f" points="699.784,-985.813 700.274,-974.858 697.938,-981.166 696.092,-976.519 696.092,-976.519 696.092,-976.519 697.938,-981.166 691.91,-978.181 699.784,-985.813 699.784,-985.813"/>
</g>
<!-- Recurrence -->
<g id="node12" class="node"><title>Recurrence</title>
<polyline fill="none" stroke="black" points="559.381,-1125.2 688.619,-1125.2 "/>
<path fill="none" stroke="black" d="M688.619,-1125.2C694.619,-1125.2 700.619,-1131.2 700.619,-1137.2"/>
<polyline fill="none" stroke="black" points="700.619,-1137.2 700.619,-1330.8 "/>
<path fill="none" stroke="black" d="M700.619,-1330.8C700.619,-1336.8 694.619,-1342.8 688.619,-1342.8"/>
<polyline fill="none" stroke="black" points="688.619,-1342.8 559.381,-1342.8 "/>
<path fill="none" stroke="black" d="M559.381,-1342.8C553.381,-1342.8 547.381,-1336.8 547.381,-1330.8"/>
<polyline fill="none" stroke="black" points="547.381,-1330.8 547.381,-1137.2 "/>
<path fill="none" stroke="black" d="M547.381,-1137.2C547.381,-1131.2 553.381,-1125.2 559.381,-1125.2"/>
<text text-anchor="middle" x="624" y="-1324.8" font-family="Times,serif" font-size="14.00">Recurrence</text>
<polyline fill="none" stroke="black" points="547.381,-1318 700.619,-1318 "/>
<text text-anchor="start" x="555.381" y="-1300" font-family="Times,serif" font-size="14.00">interval :integer</text>
<text text-anchor="start" x="555.381" y="-1283.2" font-family="Times,serif" font-size="14.00">every_other :integer</text>
<text text-anchor="start" x="555.381" y="-1266.4" font-family="Times,serif" font-size="14.00">day_of_week :integer</text>
<text text-anchor="start" x="555.381" y="-1249.6" font-family="Times,serif" font-size="14.00">day_of_month :integer</text>
<text text-anchor="start" x="555.381" y="-1232.8" font-family="Times,serif" font-size="14.00">week_of_month :integer</text>
<text text-anchor="start" x="555.381" y="-1216" font-family="Times,serif" font-size="14.00">range_start :date</text>
<text text-anchor="start" x="555.381" y="-1199.2" font-family="Times,serif" font-size="14.00">range_end :date</text>
<text text-anchor="start" x="555.381" y="-1182.4" font-family="Times,serif" font-size="14.00">start :datetime</text>
<text text-anchor="start" x="555.381" y="-1165.6" font-family="Times,serif" font-size="14.00">end :datetime</text>
<text text-anchor="start" x="555.381" y="-1148.8" font-family="Times,serif" font-size="14.00">created_at :datetime</text>
<text text-anchor="start" x="555.381" y="-1132" font-family="Times,serif" font-size="14.00">updated_at :datetime</text>
</g>
<!-- Event&#45;&gt;Recurrence -->
<g id="edge18" class="edge"><title>Event&#45;&gt;Recurrence</title>
<path fill="none" stroke="#4cb494" d="M524.198,-1376.21C527.181,-1372.09 530.129,-1368 533,-1364 535.972,-1359.86 538.991,-1355.65 542.037,-1351.38"/>
<ellipse fill="none" stroke="#4cb494" cx="521.834" cy="-1379.48" rx="4.00002" ry="4.00002"/>
<polygon fill="#4cb494" stroke="#4cb494" points="542.111,-1351.28 551.582,-1345.75 545.015,-1347.21 547.918,-1343.14 547.918,-1343.14 547.918,-1343.14 545.015,-1347.21 544.255,-1340.53 542.111,-1351.28 542.111,-1351.28"/>
</g>
<!-- Event&#45;&gt;Tag -->
<g id="edge16" class="edge"><title>Event&#45;&gt;Tag</title>
<path fill="none" stroke="#19e98a" d="M391.309,-1377.2C362.267,-1345.75 329.868,-1310.66 304.519,-1283.21"/>
<polygon fill="#19e98a" stroke="#19e98a" points="391.658,-1377.58 395.136,-1387.98 395.05,-1381.25 398.442,-1384.92 398.442,-1384.92 398.442,-1384.92 395.05,-1381.25 401.748,-1381.87 391.658,-1377.58 391.658,-1377.58"/>
<polygon fill="#19e98a" stroke="#19e98a" points="304.349,-1283.03 300.871,-1272.63 300.957,-1279.35 297.565,-1275.68 297.565,-1275.68 297.565,-1275.68 300.957,-1279.35 294.259,-1278.73 304.349,-1283.03 304.349,-1283.03"/>
</g>
<!-- Event&#45;&gt;User -->
<g id="edge14" class="edge"><title>Event&#45;&gt;User</title>
<path fill="none" stroke="#9e7c51" d="M463.773,-1372.47C462.806,-1301.37 461.537,-1197.05 461.021,-1106 460.975,-1098 460.703,-1095.99 461.021,-1088 465.888,-965.627 476.801,-828.355 486.538,-721.315"/>
<polygon fill="#9e7c51" stroke="#9e7c51" points="463.776,-1372.71 459.414,-1382.77 463.845,-1377.71 463.914,-1382.71 463.914,-1382.71 463.914,-1382.71 463.845,-1377.71 468.413,-1382.65 463.776,-1372.71 463.776,-1372.71"/>
<polygon fill="#9e7c51" stroke="#9e7c51" points="486.566,-721.011 491.958,-711.462 487.022,-716.032 487.477,-711.053 487.477,-711.053 487.477,-711.053 487.022,-716.032 482.996,-710.643 486.566,-721.011 486.566,-721.011"/>
<text text-anchor="middle" x="507.49" y="-1091.4" font-family="Times,serif" font-size="14.00">bookmarked_by</text>
</g>
<!-- EventsTags -->
<g id="node7" class="node"><title>EventsTags</title>
<polyline fill="none" stroke="black" points="506.83,-1615.6 563.17,-1615.6 "/>
<path fill="none" stroke="black" d="M563.17,-1615.6C569.17,-1615.6 575.17,-1621.6 575.17,-1627.6"/>
<polyline fill="none" stroke="black" points="575.17,-1627.6 575.17,-1652.4 "/>
<path fill="none" stroke="black" d="M575.17,-1652.4C575.17,-1658.4 569.17,-1664.4 563.17,-1664.4"/>
<polyline fill="none" stroke="black" points="563.17,-1664.4 506.83,-1664.4 "/>
<path fill="none" stroke="black" d="M506.83,-1664.4C500.83,-1664.4 494.83,-1658.4 494.83,-1652.4"/>
<polyline fill="none" stroke="black" points="494.83,-1652.4 494.83,-1627.6 "/>
<path fill="none" stroke="black" d="M494.83,-1627.6C494.83,-1621.6 500.83,-1615.6 506.83,-1615.6"/>
<text text-anchor="middle" x="535" y="-1646.4" font-family="Times,serif" font-size="14.00">EventsTags</text>
<polyline fill="none" stroke="black" points="494.83,-1639.6 575.17,-1639.6 "/>
</g>
<!-- Feedback -->
<g id="node8" class="node"><title>Feedback</title>
<polyline fill="none" stroke="black" points="605.06,-1573.2 724.94,-1573.2 "/>
<path fill="none" stroke="black" d="M724.94,-1573.2C730.94,-1573.2 736.94,-1579.2 736.94,-1585.2"/>
<polyline fill="none" stroke="black" points="736.94,-1585.2 736.94,-1694.8 "/>
<path fill="none" stroke="black" d="M736.94,-1694.8C736.94,-1700.8 730.94,-1706.8 724.94,-1706.8"/>
<polyline fill="none" stroke="black" points="724.94,-1706.8 605.06,-1706.8 "/>
<path fill="none" stroke="black" d="M605.06,-1706.8C599.06,-1706.8 593.06,-1700.8 593.06,-1694.8"/>
<polyline fill="none" stroke="black" points="593.06,-1694.8 593.06,-1585.2 "/>
<path fill="none" stroke="black" d="M593.06,-1585.2C593.06,-1579.2 599.06,-1573.2 605.06,-1573.2"/>
<text text-anchor="middle" x="665" y="-1688.8" font-family="Times,serif" font-size="14.00">Feedback</text>
<polyline fill="none" stroke="black" points="593.06,-1682 736.94,-1682 "/>
<text text-anchor="start" x="601.06" y="-1664" font-family="Times,serif" font-size="14.00">subject :string</text>
<text text-anchor="start" x="601.06" y="-1647.2" font-family="Times,serif" font-size="14.00">description :string</text>
<text text-anchor="start" x="601.06" y="-1630.4" font-family="Times,serif" font-size="14.00">status :integer</text>
<text text-anchor="start" x="601.06" y="-1613.6" font-family="Times,serif" font-size="14.00">created_at :datetime</text>
<text text-anchor="start" x="601.06" y="-1596.8" font-family="Times,serif" font-size="14.00">updated_at :datetime</text>
<text text-anchor="start" x="601.06" y="-1580" font-family="Times,serif" font-size="14.00">feedback_type :integer</text>
</g>
<!-- RawEvent -->
<g id="node10" class="node"><title>RawEvent</title>
<polyline fill="none" stroke="black" points="247.153,-0.8 360.847,-0.8 "/>
<path fill="none" stroke="black" d="M360.847,-0.8C366.847,-0.8 372.847,-6.8 372.847,-12.8"/>
<polyline fill="none" stroke="black" points="372.847,-12.8 372.847,-307.2 "/>
<path fill="none" stroke="black" d="M372.847,-307.2C372.847,-313.2 366.847,-319.2 360.847,-319.2"/>
<polyline fill="none" stroke="black" points="360.847,-319.2 247.153,-319.2 "/>
<path fill="none" stroke="black" d="M247.153,-319.2C241.153,-319.2 235.153,-313.2 235.153,-307.2"/>
<polyline fill="none" stroke="black" points="235.153,-307.2 235.153,-12.8 "/>
<path fill="none" stroke="black" d="M235.153,-12.8C235.153,-6.8 241.153,-0.8 247.153,-0.8"/>
<text text-anchor="middle" x="304" y="-301.2" font-family="Times,serif" font-size="14.00">RawEvent</text>
<polyline fill="none" stroke="black" points="235.153,-294.4 372.847,-294.4 "/>
<text text-anchor="start" x="243.153" y="-276.4" font-family="Times,serif" font-size="14.00">title :string</text>
<text text-anchor="start" x="243.153" y="-259.6" font-family="Times,serif" font-size="14.00">description :text</text>
<text text-anchor="start" x="243.153" y="-242.8" font-family="Times,serif" font-size="14.00">start :datetime</text>
<text text-anchor="start" x="243.153" y="-226" font-family="Times,serif" font-size="14.00">end :datetime</text>
<text text-anchor="start" x="243.153" y="-209.2" font-family="Times,serif" font-size="14.00">latitude :float</text>
<text text-anchor="start" x="243.153" y="-192.4" font-family="Times,serif" font-size="14.00">longitude :float</text>
<text text-anchor="start" x="243.153" y="-175.6" font-family="Times,serif" font-size="14.00">venue_name :string</text>
<text text-anchor="start" x="243.153" y="-158.8" font-family="Times,serif" font-size="14.00">venue_address :string</text>
<text text-anchor="start" x="243.153" y="-142" font-family="Times,serif" font-size="14.00">venue_city :string</text>
<text text-anchor="start" x="243.153" y="-125.2" font-family="Times,serif" font-size="14.00">venue_state :string</text>
<text text-anchor="start" x="243.153" y="-108.4" font-family="Times,serif" font-size="14.00">venue_zip :string</text>
<text text-anchor="start" x="243.153" y="-91.6" font-family="Times,serif" font-size="14.00">url :string</text>
<text text-anchor="start" x="243.153" y="-74.8" font-family="Times,serif" font-size="14.00">from :string</text>
<text text-anchor="start" x="243.153" y="-58" font-family="Times,serif" font-size="14.00">created_at :datetime</text>
<text text-anchor="start" x="243.153" y="-41.2" font-family="Times,serif" font-size="14.00">updated_at :datetime</text>
<text text-anchor="start" x="243.153" y="-24.4" font-family="Times,serif" font-size="14.00">deleted :boolean</text>
<text text-anchor="start" x="243.153" y="-7.6" font-family="Times,serif" font-size="14.00">submitted :boolean</text>
</g>
<!-- RawVenue -->
<g id="node11" class="node"><title>RawVenue</title>
<polyline fill="none" stroke="black" points="233.319,-359 344.681,-359 "/>
<path fill="none" stroke="black" d="M344.681,-359C350.681,-359 356.681,-365 356.681,-371"/>
<polyline fill="none" stroke="black" points="356.681,-371 356.681,-699 "/>
<path fill="none" stroke="black" d="M356.681,-699C356.681,-705 350.681,-711 344.681,-711"/>
<polyline fill="none" stroke="black" points="344.681,-711 233.319,-711 "/>
<path fill="none" stroke="black" d="M233.319,-711C227.319,-711 221.319,-705 221.319,-699"/>
<polyline fill="none" stroke="black" points="221.319,-699 221.319,-371 "/>
<path fill="none" stroke="black" d="M221.319,-371C221.319,-365 227.319,-359 233.319,-359"/>
<text text-anchor="middle" x="289" y="-693" font-family="Times,serif" font-size="14.00">RawVenue</text>
<polyline fill="none" stroke="black" points="221.319,-686.2 356.681,-686.2 "/>
<text text-anchor="start" x="229.319" y="-668.2" font-family="Times,serif" font-size="14.00">name :string</text>
<text text-anchor="start" x="229.319" y="-651.4" font-family="Times,serif" font-size="14.00">address :string</text>
<text text-anchor="start" x="229.319" y="-634.6" font-family="Times,serif" font-size="14.00">address2 :string</text>
<text text-anchor="start" x="229.319" y="-617.8" font-family="Times,serif" font-size="14.00">city :string</text>
<text text-anchor="start" x="229.319" y="-601" font-family="Times,serif" font-size="14.00">zip :integer</text>
<text text-anchor="start" x="229.319" y="-584.2" font-family="Times,serif" font-size="14.00">state_code :string</text>
<text text-anchor="start" x="229.319" y="-567.4" font-family="Times,serif" font-size="14.00">phone :string</text>
<text text-anchor="start" x="229.319" y="-550.6" font-family="Times,serif" font-size="14.00">latitude :float</text>
<text text-anchor="start" x="229.319" y="-533.8" font-family="Times,serif" font-size="14.00">longitude :float</text>
<text text-anchor="start" x="229.319" y="-517" font-family="Times,serif" font-size="14.00">rating :integer</text>
<text text-anchor="start" x="229.319" y="-500.2" font-family="Times,serif" font-size="14.00">categories :text</text>
<text text-anchor="start" x="229.319" y="-483.4" font-family="Times,serif" font-size="14.00">neighborhoods :text</text>
<text text-anchor="start" x="229.319" y="-466.6" font-family="Times,serif" font-size="14.00">created_at :datetime</text>
<text text-anchor="start" x="229.319" y="-449.8" font-family="Times,serif" font-size="14.00">updated_at :datetime</text>
<text text-anchor="start" x="229.319" y="-433" font-family="Times,serif" font-size="14.00">from :string</text>
<text text-anchor="start" x="229.319" y="-416.2" font-family="Times,serif" font-size="14.00">url :string</text>
<text text-anchor="start" x="229.319" y="-399.4" font-family="Times,serif" font-size="14.00">description :text</text>
<text text-anchor="start" x="229.319" y="-382.6" font-family="Times,serif" font-size="14.00">events_url :string</text>
<text text-anchor="start" x="229.319" y="-365.8" font-family="Times,serif" font-size="14.00">last_visited :datetime</text>
</g>
<!-- RawVenue&#45;&gt;RawEvent -->
<g id="edge22" class="edge"><title>RawVenue&#45;&gt;RawEvent</title>
<path fill="none" stroke="#937faa" d="M296.364,-350.886C296.65,-343.782 296.936,-336.67 297.22,-329.594"/>
<ellipse fill="none" stroke="#937faa" cx="296.2" cy="-354.971" rx="4" ry="4"/>
<polygon fill="#937faa" stroke="#937faa" points="297.234,-329.247 302.132,-319.436 297.435,-324.251 297.636,-319.255 297.636,-319.255 297.636,-319.255 297.435,-324.251 293.139,-319.074 297.234,-329.247 297.234,-329.247"/>
</g>
<!-- Recurrence&#45;&gt;Occurrence -->
<g id="edge24" class="edge"><title>Recurrence&#45;&gt;Occurrence</title>
<path fill="none" stroke="#394358" d="M684.93,-1117.37C686.072,-1113.57 687.102,-1109.78 688,-1106 697.274,-1066.99 693.489,-1022.32 687.049,-986.424"/>
<ellipse fill="none" stroke="#394358" cx="683.657" cy="-1121.34" rx="4.00001" ry="4.00001"/>
<polygon fill="#394358" stroke="#394358" points="687.039,-986.368 689.592,-975.703 686.105,-981.456 685.171,-976.544 685.171,-976.544 685.171,-976.544 686.105,-981.456 680.75,-977.384 687.039,-986.368 687.039,-986.368"/>
</g>
<!-- Role -->
<g id="node13" class="node"><title>Role</title>
<polyline fill="none" stroke="black" points="807.102,-868 916.898,-868 "/>
<path fill="none" stroke="black" d="M916.898,-868C922.898,-868 928.898,-874 928.898,-880"/>
<polyline fill="none" stroke="black" points="928.898,-880 928.898,-956 "/>
<path fill="none" stroke="black" d="M928.898,-956C928.898,-962 922.898,-968 916.898,-968"/>
<polyline fill="none" stroke="black" points="916.898,-968 807.102,-968 "/>
<path fill="none" stroke="black" d="M807.102,-968C801.102,-968 795.102,-962 795.102,-956"/>
<polyline fill="none" stroke="black" points="795.102,-956 795.102,-880 "/>
<path fill="none" stroke="black" d="M795.102,-880C795.102,-874 801.102,-868 807.102,-868"/>
<text text-anchor="middle" x="862" y="-950" font-family="Times,serif" font-size="14.00">Role</text>
<polyline fill="none" stroke="black" points="795.102,-943.2 928.898,-943.2 "/>
<text text-anchor="start" x="803.102" y="-925.2" font-family="Times,serif" font-size="14.00">name :string</text>
<text text-anchor="start" x="803.102" y="-908.4" font-family="Times,serif" font-size="14.00">resource_type :string</text>
<text text-anchor="start" x="803.102" y="-891.6" font-family="Times,serif" font-size="14.00">created_at :datetime</text>
<text text-anchor="start" x="803.102" y="-874.8" font-family="Times,serif" font-size="14.00">updated_at :datetime</text>
</g>
<!-- Role&#45;&gt;User -->
<g id="edge26" class="edge"><title>Role&#45;&gt;User</title>
<path fill="none" stroke="#18c0e4" d="M845.707,-858.017C832.764,-818.764 811.688,-767.683 781,-730 736.064,-674.821 671.612,-628.319 616.291,-594.688"/>
<polygon fill="#18c0e4" stroke="#18c0e4" points="845.767,-858.205 844.539,-869.102 847.296,-862.966 848.824,-867.726 848.824,-867.726 848.824,-867.726 847.296,-862.966 853.108,-866.351 845.767,-858.205 845.767,-858.205"/>
<polygon fill="#18c0e4" stroke="#18c0e4" points="616.066,-594.553 609.813,-585.545 611.78,-591.977 607.495,-589.402 607.495,-589.402 607.495,-589.402 611.78,-591.977 605.177,-593.259 616.066,-594.553 616.066,-594.553"/>
</g>
<!-- Tag&#45;&gt;Tag -->
<g id="edge30" class="edge"><title>Tag&#45;&gt;Tag</title>
<path fill="none" stroke="#a5547a" d="M334.046,-1252.52C340.184,-1248.53 344,-1242.35 344,-1234 344,-1226.36 340.806,-1220.54 335.562,-1216.55"/>
<ellipse fill="none" stroke="#a5547a" cx="330.174" cy="-1254.31" rx="4.00002" ry="4.00002"/>
<polygon fill="#a5547a" stroke="#a5547a" points="335.475,-1216.5 328.57,-1207.99 331.01,-1214.26 326.545,-1212.01 326.545,-1212.01 326.545,-1212.01 331.01,-1214.26 324.52,-1216.02 335.475,-1216.5 335.475,-1216.5"/>
<text text-anchor="middle" x="371.115" y="-1228.4" font-family="Times,serif" font-size="14.00">childTags</text>
</g>
<!-- Venue -->
<g id="node17" class="node"><title>Venue</title>
<polyline fill="none" stroke="black" points="205.495,-767.2 314.505,-767.2 "/>
<path fill="none" stroke="black" d="M314.505,-767.2C320.505,-767.2 326.505,-773.2 326.505,-779.2"/>
<polyline fill="none" stroke="black" points="326.505,-779.2 326.505,-1056.8 "/>
<path fill="none" stroke="black" d="M326.505,-1056.8C326.505,-1062.8 320.505,-1068.8 314.505,-1068.8"/>
<polyline fill="none" stroke="black" points="314.505,-1068.8 205.495,-1068.8 "/>
<path fill="none" stroke="black" d="M205.495,-1068.8C199.495,-1068.8 193.495,-1062.8 193.495,-1056.8"/>
<polyline fill="none" stroke="black" points="193.495,-1056.8 193.495,-779.2 "/>
<path fill="none" stroke="black" d="M193.495,-779.2C193.495,-773.2 199.495,-767.2 205.495,-767.2"/>
<text text-anchor="middle" x="260" y="-1050.8" font-family="Times,serif" font-size="14.00">Venue</text>
<polyline fill="none" stroke="black" points="193.495,-1044 326.505,-1044 "/>
<text text-anchor="start" x="201.495" y="-1026" font-family="Times,serif" font-size="14.00">name :string</text>
<text text-anchor="start" x="201.495" y="-1009.2" font-family="Times,serif" font-size="14.00">description :text</text>
<text text-anchor="start" x="201.495" y="-992.4" font-family="Times,serif" font-size="14.00">address :string</text>
<text text-anchor="start" x="201.495" y="-975.6" font-family="Times,serif" font-size="14.00">address2 :string</text>
<text text-anchor="start" x="201.495" y="-958.8" font-family="Times,serif" font-size="14.00">city :string</text>
<text text-anchor="start" x="201.495" y="-942" font-family="Times,serif" font-size="14.00">state :string</text>
<text text-anchor="start" x="201.495" y="-925.2" font-family="Times,serif" font-size="14.00">zip :integer</text>
<text text-anchor="start" x="201.495" y="-908.4" font-family="Times,serif" font-size="14.00">latitude :float</text>
<text text-anchor="start" x="201.495" y="-891.6" font-family="Times,serif" font-size="14.00">longitude :float</text>
<text text-anchor="start" x="201.495" y="-874.8" font-family="Times,serif" font-size="14.00">created_at :datetime</text>
<text text-anchor="start" x="201.495" y="-858" font-family="Times,serif" font-size="14.00">updated_at :datetime</text>
<text text-anchor="start" x="201.495" y="-841.2" font-family="Times,serif" font-size="14.00">phonenumber :string</text>
<text text-anchor="start" x="201.495" y="-824.4" font-family="Times,serif" font-size="14.00">url :string</text>
<text text-anchor="start" x="201.495" y="-807.6" font-family="Times,serif" font-size="14.00">clicks :integer</text>
<text text-anchor="start" x="201.495" y="-790.8" font-family="Times,serif" font-size="14.00">views :integer</text>
<text text-anchor="start" x="201.495" y="-774" font-family="Times,serif" font-size="14.00">events_url :string</text>
</g>
<!-- Tag&#45;&gt;Venue -->
<g id="edge28" class="edge"><title>Tag&#45;&gt;Venue</title>
<path fill="none" stroke="#934c50" d="M260,-1182.16C260,-1153.66 260,-1116.38 260,-1078.88"/>
<polygon fill="#934c50" stroke="#934c50" points="260,-1182.27 255.5,-1192.27 260,-1187.27 260,-1192.27 260,-1192.27 260,-1192.27 260,-1187.27 264.5,-1192.27 260,-1182.27 260,-1182.27"/>
<polygon fill="#934c50" stroke="#934c50" points="260,-1078.83 264.5,-1068.83 260,-1073.83 260,-1068.83 260,-1068.83 260,-1068.83 260,-1073.83 255.5,-1068.83 260,-1078.83 260,-1078.83"/>
</g>
<!-- TagsVenues -->
<g id="node15" class="node"><title>TagsVenues</title>
<polyline fill="none" stroke="black" points="766.495,-1606.8 875.505,-1606.8 "/>
<path fill="none" stroke="black" d="M875.505,-1606.8C881.505,-1606.8 887.505,-1612.8 887.505,-1618.8"/>
<polyline fill="none" stroke="black" points="887.505,-1618.8 887.505,-1661.2 "/>
<path fill="none" stroke="black" d="M887.505,-1661.2C887.505,-1667.2 881.505,-1673.2 875.505,-1673.2"/>
<polyline fill="none" stroke="black" points="875.505,-1673.2 766.495,-1673.2 "/>
<path fill="none" stroke="black" d="M766.495,-1673.2C760.495,-1673.2 754.495,-1667.2 754.495,-1661.2"/>
<polyline fill="none" stroke="black" points="754.495,-1661.2 754.495,-1618.8 "/>
<path fill="none" stroke="black" d="M754.495,-1618.8C754.495,-1612.8 760.495,-1606.8 766.495,-1606.8"/>
<text text-anchor="middle" x="821" y="-1655.2" font-family="Times,serif" font-size="14.00">TagsVenues</text>
<polyline fill="none" stroke="black" points="754.495,-1648.4 887.505,-1648.4 "/>
<text text-anchor="start" x="762.495" y="-1630.4" font-family="Times,serif" font-size="14.00">created_at :datetime</text>
<text text-anchor="start" x="762.495" y="-1613.6" font-family="Times,serif" font-size="14.00">updated_at :datetime</text>
</g>
<!-- User&#45;&gt;Act -->
<g id="edge40" class="edge"><title>User&#45;&gt;Act</title>
<path fill="none" stroke="#4cdf1d" d="M617.195,-564.183C718.051,-595.731 861.567,-657.291 937,-766 975.594,-821.619 957,-849.303 957,-917 957,-1459 957,-1459 957,-1459 957,-1606.71 435.402,-1508.59 302,-1572 295.278,-1575.19 288.716,-1579.18 282.446,-1583.61"/>
<polygon fill="#4cdf1d" stroke="#4cdf1d" points="617.13,-564.163 608.895,-556.922 612.351,-562.693 607.572,-561.223 607.572,-561.223 607.572,-561.223 612.351,-562.693 606.249,-565.524 617.13,-564.163 617.13,-564.163"/>
<polygon fill="#4cdf1d" stroke="#4cdf1d" points="282.084,-1583.88 271.386,-1586.3 278.087,-1586.89 274.09,-1589.89 274.09,-1589.89 274.09,-1589.89 278.087,-1586.89 276.793,-1593.49 282.084,-1583.88 282.084,-1583.88"/>
<text text-anchor="middle" x="1006.37" y="-1228.4" font-family="Times,serif" font-size="14.00">bookmarked_acts</text>
</g>
<!-- User&#45;&gt;Bookmark -->
<g id="edge34" class="edge"><title>User&#45;&gt;Bookmark</title>
<path fill="none" stroke="#a9e971" d="M396.628,-382.855C386.602,-373.705 376.036,-365.275 365,-358 311.529,-322.75 276.259,-359.695 226,-320 191.015,-292.368 168.106,-246.621 154.623,-211.273"/>
<ellipse fill="none" stroke="#a9e971" cx="399.549" cy="-385.59" rx="4.00002" ry="4.00002"/>
<polygon fill="#a9e971" stroke="#a9e971" points="154.518,-210.988 155.291,-200.05 152.793,-206.296 151.068,-201.603 151.068,-201.603 151.068,-201.603 152.793,-206.296 146.844,-203.155 154.518,-210.988 154.518,-210.988"/>
</g>
<!-- User&#45;&gt;Event -->
<g id="edge32" class="edge"><title>User&#45;&gt;Event</title>
<path fill="none" stroke="#48f389" d="M613.876,-607.574C664.471,-647.494 719.443,-702.066 747,-766 760.576,-797.498 765.836,-1302.9 742,-1344 701.662,-1413.55 608.82,-1440.31 541.723,-1450.59"/>
<ellipse fill="none" stroke="#48f389" cx="610.565" cy="-604.992" rx="4.00002" ry="4.00002"/>
<polygon fill="#48f389" stroke="#48f389" points="541.502,-1450.62 530.963,-1447.59 536.553,-1451.34 531.604,-1452.05 531.604,-1452.05 531.604,-1452.05 536.553,-1451.34 532.245,-1456.5 541.502,-1450.62 541.502,-1450.62"/>
</g>
<!-- User&#45;&gt;Event -->
<g id="edge38" class="edge"><title>User&#45;&gt;Event</title>
<path fill="none" stroke="#04daa7" d="M557.453,-720.945C580.756,-834.838 594.467,-982.229 552,-1106 548.711,-1115.59 542.302,-1114.82 538,-1124 517.659,-1167.38 493.846,-1289.1 479.09,-1372.71"/>
<polygon fill="#04daa7" stroke="#04daa7" points="557.436,-720.862 559.797,-710.153 556.414,-715.967 555.392,-711.073 555.392,-711.073 555.392,-711.073 556.414,-715.967 550.987,-711.992 557.436,-720.862 557.436,-720.862"/>
<polygon fill="#04daa7" stroke="#04daa7" points="479.064,-1372.86 472.904,-1381.93 478.2,-1377.78 477.336,-1382.71 477.336,-1382.71 477.336,-1382.71 478.2,-1377.78 481.768,-1383.49 479.064,-1372.86 479.064,-1372.86"/>
<text text-anchor="middle" x="614.373" y="-1091.4" font-family="Times,serif" font-size="14.00">bookmarked_events</text>
</g>
<!-- User&#45;&gt;Venue -->
<g id="edge36" class="edge"><title>User&#45;&gt;Venue</title>
<path fill="none" stroke="#2c3978" d="M394.66,-690.685C385.263,-698.634 375.364,-705.855 365,-712 324.705,-735.893 291.419,-694.25 261.145,-730 254.149,-738.261 248.956,-747.543 245.215,-757.439"/>
<polygon fill="#2c3978" stroke="#2c3978" points="394.926,-690.451 405.406,-687.224 398.68,-687.148 402.434,-683.845 402.434,-683.845 402.434,-683.845 398.68,-687.148 399.461,-680.467 394.926,-690.451 394.926,-690.451"/>
<polygon fill="#2c3978" stroke="#2c3978" points="245.164,-757.595 237.784,-765.706 243.613,-762.348 242.062,-767.102 242.062,-767.102 242.062,-767.102 243.613,-762.348 246.34,-768.498 245.164,-757.595 245.164,-757.595"/>
<text text-anchor="middle" x="319.928" y="-733.4" font-family="Times,serif" font-size="14.00">bookmarked_venues</text>
</g>
<!-- History -->
<g id="node39" class="node"><title>History</title>
<ellipse fill="none" stroke="black" cx="505" cy="-160" rx="40.011" ry="18"/>
<text text-anchor="middle" x="505" y="-154.4" font-family="Times,serif" font-size="14.00">History</text>
</g>
<!-- User&#45;&gt;History -->
<g id="edge42" class="edge"><title>User&#45;&gt;History</title>
<path fill="none" stroke="#1e8e05" d="M505,-350.847C505,-287.434 505,-223.504 505,-188.396"/>
<ellipse fill="none" stroke="#1e8e05" cx="505" cy="-354.968" rx="4" ry="4"/>
<polygon fill="#1e8e05" stroke="#1e8e05" points="505,-188.048 509.5,-178.048 505,-183.048 505,-178.048 505,-178.048 505,-178.048 505,-183.048 500.5,-178.048 505,-188.048 505,-188.048"/>
</g>
<!-- Venue&#45;&gt;Bookmark -->
<g id="edge48" class="edge"><title>Venue&#45;&gt;Bookmark</title>
<path fill="none" stroke="#3734be" d="M221.328,-758.81C217.964,-743.039 214.786,-727.233 212,-712 178.548,-529.06 154.09,-309.279 144.043,-211.813"/>
<ellipse fill="none" stroke="#3734be" cx="222.261" cy="-763.141" rx="4.00001" ry="4.00001"/>
<polygon fill="#3734be" stroke="#3734be" points="144.022,-211.602 147.479,-201.195 143.512,-206.628 143.003,-201.654 143.003,-201.654 143.003,-201.654 143.512,-206.628 138.526,-202.112 144.022,-211.602 144.022,-211.602"/>
</g>
<!-- Venue&#45;&gt;Event -->
<g id="edge44" class="edge"><title>Venue&#45;&gt;Event</title>
<path fill="none" stroke="#c39e39" d="M331.679,-1000.88C359.284,-1036.5 388.576,-1080.09 407,-1124 416.479,-1146.59 438.27,-1281.4 452.278,-1372.42"/>
<ellipse fill="none" stroke="#c39e39" cx="329.013" cy="-997.468" rx="4.00002" ry="4.00002"/>
<polygon fill="#c39e39" stroke="#c39e39" points="452.303,-1372.57 449.372,-1383.14 453.061,-1377.52 453.82,-1382.46 453.82,-1382.46 453.82,-1382.46 453.061,-1377.52 458.268,-1381.78 452.303,-1372.57 452.303,-1372.57"/>
</g>
<!-- Venue&#45;&gt;RawVenue -->
<g id="edge46" class="edge"><title>Venue&#45;&gt;RawVenue</title>
<path fill="none" stroke="#79b4bc" d="M241.67,-758.847C241.425,-755.198 241.201,-751.579 241,-748 240.509,-739.24 240.503,-730.322 240.899,-721.348"/>
<ellipse fill="none" stroke="#79b4bc" cx="241.956" cy="-762.885" rx="4" ry="4"/>
<polygon fill="#79b4bc" stroke="#79b4bc" points="240.909,-721.179 246.003,-711.468 241.21,-716.188 241.511,-711.197 241.511,-711.197 241.511,-711.197 241.21,-716.188 237.019,-710.926 240.909,-721.179 240.909,-721.179"/>
</g>
<!-- Venue&#45;&gt;User -->
<g id="edge50" class="edge"><title>Venue&#45;&gt;User</title>
<path fill="none" stroke="#c760e2" d="M332.367,-814.656C347.375,-792.826 362.903,-769.784 377,-748 383.681,-737.676 390.468,-727.012 397.252,-716.213"/>
<polygon fill="#c760e2" stroke="#c760e2" points="332.319,-814.724 322.939,-820.404 329.482,-818.841 326.644,-822.958 326.644,-822.958 326.644,-822.958 329.482,-818.841 330.349,-825.512 332.319,-814.724 332.319,-814.724"/>
<polygon fill="#c760e2" stroke="#c760e2" points="397.383,-716.003 406.505,-709.916 400.037,-711.765 402.691,-707.528 402.691,-707.528 402.691,-707.528 400.037,-711.765 398.877,-705.139 397.383,-716.003 397.383,-716.003"/>
<text text-anchor="middle" x="433.49" y="-733.4" font-family="Times,serif" font-size="14.00">bookmarked_by</text>
</g>
</g>
</svg>
